HIERARCHY
ROOT Hips
{
	OFFSET 0.000000 0.000000 0.000000 
	CHANNELS 6 Xposition Yposition Zposition Zrotation Yrotation Xrotation
	JOINT LeftUpLeg
	{
		OFFSET 1.363060 -1.794630 0.839290 
		CHANNELS 3 Zrotation Yrotation Xrotation
		JOINT LeftLeg
		{
			OFFSET 2.448110 -6.726130 0.000000 
			CHANNELS 3 Zrotation Yrotation Xrotation
			JOINT LeftFoot
			{
				OFFSET 2.562200 -7.039590 0.000000 
				CHANNELS 3 Zrotation Yrotation Xrotation
				JOINT LeftToeBase
				{
					OFFSET 0.157640 -0.433110 2.322550 
					CHANNELS 3 Zrotation Yrotation Xrotation
					End Site
					{
						OFFSET 0.000000 0.000000 0.000000 
					}
				}
			}
		}
	}
	JOINT RightUpLeg
	{
		OFFSET -1.305520 -1.794630 0.839290 
		CHANNELS 3 Zrotation Yrotation Xrotation
		JOINT RightLeg
		{
			OFFSET -2.542530 -6.985550 0.000000 
			CHANNELS 3 Zrotation Yrotation Xrotation
			JOINT RightFoot
			{
				OFFSET -2.568260 -7.056230 0.000000 
				CHANNELS 3 Zrotation Yrotation Xrotation
				JOINT RightToeBase
				{
					OFFSET -0.164730 -0.452590 2.363150 
					CHANNELS 3 Zrotation Yrotation Xrotation
					End Site
					{
						OFFSET 0.000000 0.000000 0.000000 
					}
				}
			}
		}
	}
	JOINT Spine
	{
		OFFSET 0.028270 2.035590 -0.193380 
		CHANNELS 3 Zrotation Yrotation Xrotation
		JOINT Spine1
		{
			OFFSET 0.056720 2.048850 -0.042750 
			CHANNELS 3 Zrotation Yrotation Xrotation
			JOINT Neck1
			{
				OFFSET -0.054170 1.746240 0.172020 
				CHANNELS 3 Zrotation Yrotation Xrotation
				JOINT Head
				{
					OFFSET 0.104070 1.761360 -0.123970 
					CHANNELS 3 Zrotation Yrotation Xrotation
					End Site
					{
						OFFSET 0.000000 0.000000 0.000000 
					}
				}
			}
			JOINT LeftArm
			{
				OFFSET 3.362410 1.200890 -0.311210 
				CHANNELS 3 Zrotation Yrotation Xrotation
				JOINT LeftForeArm
				{
					OFFSET 4.983000 -0.000000 -0.000000 
					CHANNELS 3 Zrotation Yrotation Xrotation
					JOINT LeftHand
					{
						OFFSET 3.483560 -0.000000 -0.000000 
						CHANNELS 3 Zrotation Yrotation Xrotation
						JOINT LeftHandIndex1
						{
							OFFSET 0.715260 -0.000000 -0.000000 
							CHANNELS 3 Zrotation Yrotation Xrotation
							End Site
							{
								OFFSET 0.000000 0.000000 0.000000 
							}
						}
					}
				}
			}
			JOINT RightArm
			{
				OFFSET -3.136600 1.374050 -0.404650 
				CHANNELS 3 Zrotation Yrotation Xrotation
				JOINT RightForeArm
				{
					OFFSET -5.241900 -0.000000 -0.000000 
					CHANNELS 3 Zrotation Yrotation Xrotation
					JOINT RightHand
					{
						OFFSET -3.444170 -0.000000 -0.000000 
						CHANNELS 3 Zrotation Yrotation Xrotation
						JOINT RightHandIndex1
						{
							OFFSET -0.622530 -0.000000 -0.000000 
							CHANNELS 3 Zrotation Yrotation Xrotation
							End Site
							{
								OFFSET 0.000000 0.000000 0.000000 
							}
						}
					}
				}
			}
		}
	}
}
MOTION
Frames: 10
Frame Time: 0.041667
-3.069280 18.390246 6.920486 5.060388 6.010397 4.933581 -10.542707 -7.286198 -28.565330 3.633565 11.852913 37.306251 2.790647 -10.295898 -1.135280 8.839000 -16.703000 -55.531700 13.570281 3.459685 -14.225720 -1.343980 -6.984149 23.035707 -2.577747 8.332419 -13.732407 -0.133800 2.357600 -6.495000 5.633234 -0.975802 31.592420 -2.950866 0.635994 -15.744528 -0.554669 -6.309143 45.014222 -0.383800 -3.279600 15.980700 -74.566274 29.932458 42.929488 86.509957 -56.207664 -54.127971 0.206577 0.856028 -13.730860 -7.125000 0.000000 0.000000 30.081093 -34.089201 59.926980 -89.638619 53.867325 -52.211513 1.460307 -1.109590 28.356704 7.125000 0.000000 0.000000 
-2.980953 18.392829 6.908265 4.406720 7.142938 5.373240 -10.486729 -9.515353 -28.372221 3.307117 11.472662 35.855072 2.745801 -8.914902 -4.087227 9.160000 -16.909600 -56.641900 13.600225 3.297671 -14.330591 -1.232811 -6.858513 22.475330 -2.573123 7.980430 -14.186077 -0.117100 2.206400 -6.076500 9.363742 -1.841366 30.524166 -3.516830 0.471691 -15.638902 -0.212259 -6.897342 44.987047 -0.221500 -3.571500 15.935300 -74.849482 30.292032 43.401765 88.426614 -56.138597 -55.947177 0.199367 0.841220 -13.112214 -7.125000 0.000000 0.000000 29.596977 -32.667402 55.549253 -89.492665 54.008505 -52.045929 1.477747 -1.152951 25.596513 7.125000 0.000000 0.000000 
-2.889547 18.390147 6.889189 3.775059 8.019955 5.805182 -10.690010 -10.505848 -28.715148 3.151670 11.309076 35.217419 2.667883 -8.041832 -5.524865 8.858500 -16.715800 -55.599600 13.648652 3.141446 -14.559005 -1.149586 -6.783700 22.070423 -2.571394 7.739136 -14.506856 -0.119800 2.231100 -6.144900 12.846558 -2.429231 29.215744 -4.082689 0.388927 -15.479050 0.189983 -7.538477 45.000482 -0.066300 -3.862400 15.956800 -74.760700 30.603773 44.128945 90.325644 -56.041784 -57.772880 0.192060 0.834213 -12.725621 -7.125000 0.000000 0.000000 29.867857 -30.910303 50.332548 -88.942171 54.164064 -51.332425 1.477936 -1.147781 22.736153 7.125000 0.000000 0.000000 
-2.798239 18.382397 6.863158 3.116316 8.688439 6.140328 -11.000481 -10.709539 -29.210034 3.105023 11.291785 35.104523 2.539494 -7.185526 -6.418461 8.783100 -16.666100 -55.337000 13.752308 3.130657 -14.757288 -1.094785 -6.762369 21.830114 -2.595296 7.614857 -14.873903 -0.121900 2.250600 -6.198600 16.087876 -2.755390 27.759501 -4.629324 0.376257 -15.331998 0.362818 -8.154714 44.998011 -0.024300 -4.153800 15.980600 -74.276317 30.934940 45.153967 92.233696 -55.914450 -59.633167 0.180659 0.841048 -12.307343 -7.125000 0.000000 0.000000 30.659878 -28.757984 44.671195 -87.866560 54.372615 -50.094253 1.477031 -1.122550 19.809328 7.125000 0.000000 0.000000 
-2.708025 18.370673 6.837921 2.416167 9.334216 6.257427 -11.327494 -10.545580 -29.557870 3.154248 11.372816 35.407422 2.395920 -6.586392 -6.503168 8.633200 -16.565800 -54.812700 13.929134 3.144400 -14.730892 -1.057258 -6.775157 21.700171 -2.626887 7.473675 -15.345428 -0.124800 2.277400 -6.273000 19.326152 -3.015127 26.247336 -5.005702 0.383376 -15.087785 0.258429 -8.626352 44.889670 -0.078400 -4.414000 16.008600 -73.672769 31.304949 46.313749 94.367143 -55.748964 -61.702932 0.149042 0.841470 -11.803758 -7.125000 0.000000 0.000000 31.735117 -26.161525 38.682046 -86.340647 54.633198 -48.546864 1.481033 -1.109294 17.073117 7.125000 0.000000 0.000000 
-2.617115 18.354081 6.814672 1.715266 9.872920 6.166343 -11.588011 -10.250741 -29.671971 3.283464 11.519455 35.997315 2.340953 -6.547925 -6.052067 8.480400 -16.461500 -54.275100 14.160178 2.941457 -14.611224 -1.038148 -6.807740 21.665216 -2.634450 7.362212 -15.582172 -0.144300 2.448100 -6.745800 22.254851 -3.172464 24.886717 -5.179692 0.423920 -14.732601 0.464953 -9.168763 44.488448 -0.008000 -4.667300 15.988600 -72.848260 31.598841 47.592052 96.609330 -55.552893 -63.851581 0.119575 0.813203 -11.087368 -7.125000 0.000000 0.000000 33.514955 -23.095430 31.802941 -84.575000 54.867599 -46.888618 1.478920 -1.097486 14.814864 7.125000 0.000000 0.000000 
-2.522926 18.330931 6.790231 0.993521 10.252960 5.988906 -11.735357 -10.015379 -29.600523 3.462695 11.708304 36.764222 2.337295 -6.771947 -5.464293 8.395500 -16.402600 -53.975000 14.417154 2.529814 -14.548951 -1.033358 -6.859939 21.694692 -2.627763 7.414532 -15.449560 -0.169000 2.648100 -7.300600 25.049797 -3.176505 23.336568 -5.264332 0.493471 -14.405093 1.220322 -9.816237 43.853392 0.329900 -4.935000 15.848400 -71.786347 32.084760 48.972893 98.853285 -55.316208 -66.043916 0.098669 0.818842 -9.936048 -7.125000 0.000000 0.000000 35.726137 -19.533278 24.589445 -82.934451 55.066976 -45.401143 1.479889 -1.028886 12.270471 7.125000 0.000000 0.000000 
-2.424266 18.304502 6.766286 0.384953 10.513012 5.751381 -11.818560 -10.091198 -29.323685 3.659937 11.911699 37.599678 2.325479 -6.994478 -4.803871 8.373100 -16.387000 -53.895800 14.594163 2.092138 -14.472045 -1.045968 -6.916377 21.778119 -2.642887 7.665607 -15.186202 -0.171000 2.663900 -7.344400 27.135250 -3.033952 22.150430 -5.279903 0.592284 -14.135500 1.853063 -10.551562 43.270335 0.560500 -5.225000 15.747800 -70.070160 32.315445 50.518398 101.318471 -55.041345 -68.458470 0.083973 0.826184 -8.826435 -7.125000 0.000000 0.000000 38.336490 -15.519840 17.263838 -81.714101 55.235221 -44.390101 1.492394 -0.891135 8.005338 7.125000 0.000000 0.000000 
-2.321732 18.279167 6.745422 -0.135995 10.750324 5.479482 -11.845718 -10.407729 -28.873497 3.852054 12.096816 38.393380 2.333643 -7.353168 -4.019022 8.352500 -16.372500 -53.822500 14.697440 1.821886 -14.276574 -1.064969 -6.974179 21.888096 -2.684495 7.908753 -15.159814 -0.162400 2.596200 -7.156600 28.764328 -2.867944 21.210129 -5.232053 0.681139 -13.903273 2.070184 -11.153876 42.863175 0.598800 -5.476400 15.700500 -67.934256 32.318795 52.065389 103.862985 -54.743408 -70.945506 0.071872 0.836343 -8.016990 -7.125000 0.000000 0.000000 41.017918 -11.129307 10.130823 -80.691813 55.389618 -43.645822 1.483510 -0.813863 2.631493 7.125000 0.000000 0.000000 
-2.214329 18.254229 6.729823 -0.626445 10.957644 5.225610 -11.838851 -10.717198 -28.374148 4.010207 12.237728 39.034389 2.357724 -7.806732 -3.160793 8.291200 -16.329300 -53.604900 14.766195 1.742518 -13.989208 -1.077401 -7.025318 21.980295 -2.726458 7.987799 -15.392336 -0.172900 2.678800 -7.385800 30.261760 -2.663989 20.262202 -5.155479 0.769426 -13.666522 2.306490 -11.689229 42.553230 0.668500 -5.707300 15.692400 -65.606947 32.132275 53.617270 106.196989 -54.457061 -73.205913 0.071651 0.841896 -7.341111 -7.125000 0.000000 0.000000 43.568552 -6.471742 3.536690 -80.162344 55.535329 -43.414230 1.473603 -0.753224 -1.259590 7.125000 0.000000 0.000000 
